<?xml version="1.0" encoding="UTF-8"?>
<!-- Generator: https://ezgif.com/png-to-svg -->
<svg version="1.1" xmlns="http://www.w3.org/2000/svg" width="500" height="500">
<path d="M0 0 C3.67 3.89 3.81 6.91 3.78 11.98 C3.79 12.74 3.79 13.49 3.79 14.27 C3.8 16.81 3.8 19.36 3.79 21.9 C3.8 23.72 3.8 25.54 3.81 27.36 C3.82 31.28 3.83 35.21 3.83 39.13 C3.83 45.35 3.85 51.57 3.87 57.78 C3.92 73.24 3.95 88.69 3.97 104.14 C3.99 116.13 4.01 128.12 4.05 140.11 C4.08 146.28 4.08 152.45 4.08 158.62 C4.08 162.47 4.1 166.33 4.11 170.19 C4.12 171.96 4.12 173.74 4.12 175.52 C3.74 192.56 3.74 192.56 9.19 208.31 C9.85 209.45 9.85 209.45 10.52 210.61 C10.19 211.6 9.86 212.59 9.52 213.61 C-12.59 213.28 -34.7 212.95 -57.48 212.61 C-56.82 210.96 -56.16 209.31 -55.48 207.61 C-54.94 206.14 -54.42 204.66 -53.91 203.18 C-53.67 202.46 -53.42 201.73 -53.16 200.99 C-51.35 194.7 -51.27 188.46 -51.16 181.96 C-51.14 181.07 -51.12 180.17 -51.1 179.24 C-51.04 175.91 -50.98 172.57 -50.91 169.24 C-50.77 161.77 -50.63 154.31 -50.48 146.61 C-70.28 146.61 -90.08 146.61 -110.48 146.61 C-105.55 169.28 -100.53 186.46 -88.72 205.6 C-87.28 207.93 -85.88 210.27 -84.48 212.61 C-92.92 212.66 -101.36 212.7 -109.8 212.72 C-113.72 212.73 -117.64 212.74 -121.55 212.76 C-125.33 212.79 -129.11 212.8 -132.89 212.8 C-134.34 212.81 -135.78 212.81 -137.23 212.82 C-139.25 212.84 -141.26 212.84 -143.28 212.84 C-145.01 212.85 -145.01 212.85 -146.77 212.85 C-149.48 212.61 -149.48 212.61 -151.48 210.61 C-152.15 208.75 -152.74 206.86 -153.28 204.96 C-153.62 203.8 -153.95 202.64 -154.29 201.45 C-154.82 199.58 -154.82 199.58 -155.35 197.68 C-155.71 196.41 -156.07 195.14 -156.44 193.83 C-162.17 173.3 -165.75 152.96 -166.48 131.61 C-166.51 130.67 -166.54 129.73 -166.58 128.76 C-167.85 88.03 -157.23 48.52 -129 18.22 C-121.03 9.85 -112.65 3.23 -102.48 -2.39 C-101.5 -2.93 -100.52 -3.47 -99.52 -4.04 C-70.4 -19.41 -26 -23.86 0 0 Z M-87.29 47.93 C-97.72 59.1 -104.06 72.15 -108.41 86.68 C-108.63 87.38 -108.84 88.08 -109.06 88.8 C-110.25 93.03 -110.48 96.09 -110.48 100.61 C-90.68 100.61 -70.88 100.61 -50.48 100.61 C-49.62 84.98 -49.62 84.98 -49.35 69.36 C-49.35 68.44 -49.36 67.51 -49.36 66.55 C-49.42 55.56 -49.93 44.59 -50.48 33.61 C-64.82 33.31 -76.9 37.99 -87.29 47.93 Z " fill="#2C1FC5" transform="translate(242.4765625,142.38671875)"/>
<path d="M0 0 C0.92 0.01 1.84 0.02 2.79 0.03 C3.79 0.04 3.79 0.04 4.81 0.06 C4.54 0.81 4.28 1.55 4 2.31 C3.61 3.55 3.22 4.79 2.81 6.06 C2.54 6.83 2.26 7.6 1.98 8.39 C-1.21 18.63 0 28.55 0.81 39.06 C0.94 40.71 1.06 42.35 1.18 44 C1.25 44.89 1.32 45.77 1.39 46.69 C1.52 48.55 1.66 50.4 1.8 52.26 C2.15 56.97 2.51 61.67 2.88 66.37 C3.02 68.13 3.15 69.88 3.29 71.64 C3.36 72.46 3.42 73.28 3.49 74.12 C3.93 79.84 3.93 79.84 2.81 82.06 C3.85 81.59 4.9 81.12 5.97 80.64 C26.87 71.44 50.89 67.71 72.81 76.06 C81.48 79.67 89.63 83.98 96.81 90.06 C97.78 90.76 98.75 91.47 99.75 92.19 C115.04 105.27 123.22 127.7 125.53 147.25 C126.92 166.11 125.62 183.63 117.81 201.06 C117.43 201.94 117.05 202.83 116.66 203.73 C113.64 210.29 109.55 215.64 104.81 221.06 C104.29 221.68 103.77 222.29 103.23 222.93 C89.39 238.1 68.25 244.6 48.39 246.27 C32.56 246.58 14.71 243.72 1.69 234.19 C-7.07 228.3 -23.57 232.63 -33.52 233.53 C-34.71 233.62 -35.9 233.72 -37.13 233.82 C-38.73 233.96 -38.73 233.96 -40.37 234.11 C-43.27 234.06 -44.75 233.59 -47.19 232.06 C-46.91 231.51 -46.63 230.95 -46.35 230.38 C-39.61 216.18 -42.11 199.95 -43.32 184.71 C-43.45 183.14 -43.57 181.57 -43.69 180 C-44.01 175.83 -44.34 171.65 -44.67 167.47 C-44.95 163.98 -45.22 160.49 -45.49 157 C-47.66 129.12 -49.96 101.26 -52.39 73.41 C-52.97 66.67 -53.51 59.93 -54.02 53.18 C-54.21 50.79 -54.4 48.39 -54.58 46 C-54.74 43.94 -54.88 41.88 -55.02 39.82 C-55.95 28.01 -57.67 16.51 -65.19 7.06 C-64.86 6.07 -64.53 5.08 -64.19 4.06 C-63.62 4.03 -63.06 3.99 -62.48 3.96 C-56.56 3.58 -50.63 3.21 -44.71 2.84 C-42.51 2.7 -40.3 2.56 -38.1 2.42 C-34.91 2.22 -31.73 2.02 -28.54 1.82 C-27.09 1.73 -27.09 1.73 -25.6 1.63 C-19.9 1.27 -14.22 0.81 -8.53 0.26 C-5.68 0.02 -2.86 -0.04 0 0 Z M23.56 126.81 C16.79 135.04 13.99 146.55 14.52 157.07 C14.62 158.06 14.71 159.04 14.81 160.06 C14.92 161.21 15.03 162.35 15.14 163.53 C16.51 175.09 19.19 185.76 27.81 194.06 C34.35 199.14 41.06 199.85 49.19 199.54 C57.39 198.46 63.21 194.72 68.34 188.31 C75.9 176.76 76.69 161.13 74.09 147.83 C71.37 136.06 66.1 126.77 55.81 120.12 C44.43 116 32.06 118.56 23.56 126.81 Z " fill="#2C1FC2" transform="translate(310.1875,126.9375)"/>
<path d="M0 0 C1.35 1.31 2.69 2.65 4 4 C4 4.33 4 4.66 4 5 C-17.45 5 -38.9 5 -61 5 C-61 4.67 -61 4.34 -61 4 C-41.2 3.67 -21.4 3.34 -1 3 C-0.67 2.01 -0.34 1.02 0 0 Z " fill="#2E2692" transform="translate(154,350)"/>
<path d="M0 0 C-0.33 0.99 -0.66 1.98 -1 3 C-2.16 2.98 -2.16 2.98 -3.34 2.96 C-9.35 2.91 -15.06 3.14 -21 4 C-21.99 4 -22.98 4 -24 4 C-23.67 3.01 -23.34 2.02 -23 1 C-19.73 0.83 -16.46 0.67 -13.19 0.5 C-12.26 0.45 -11.33 0.4 -10.37 0.36 C-9.03 0.29 -9.03 0.29 -7.67 0.22 C-6.85 0.18 -6.02 0.13 -5.18 0.09 C-3.45 0.02 -1.73 0 0 0 Z " fill="#271A8D" transform="translate(269,130)"/>
<path d="M0 0 C3.63 0 7.26 0 11 0 C7.1 1.95 4.28 2.51 0 3 C0 2.01 0 1.02 0 0 Z " fill="#1E189A" transform="translate(368,369)"/>
</svg>
